<?xml version="1.0" encoding="UTF-8"?>
<svg id="a" xmlns="http://www.w3.org/2000/svg" version="1.1" viewBox="0 0 480 270">
  <!-- Generator: Adobe Illustrator 29.6.1, SVG Export Plug-In . SVG Version: 2.1.1 Build 9)  -->
  <defs>
    <style>
      .st0 {
        fill: #f3bb1b;
      }

      .st1 {
        fill: #0b0807;
      }

      .st2 {
        fill: #fdfdfd;
      }
    </style>
  </defs>
  <path class="st1" d="M180.9,236.6l-14.9,6.8c11.1,1.8,23.6,5.8,34.7,6.6,13.5,1,23.1-6.1,35.8-10,10.6-3.3,21.5-5.6,32.5-7.5-.7-2.1-5.1-3.3-7.2-4.3-2.4-1.1-5.1-2-7.7-2.5.3-2.5,7.1-1.5,8.7-1.2,9.3,1.5,23,8.5,28.5,16.2,7,9.9,1.1,13.2,18.4,9.4l-2.7,10.8,17.6-4c1.4,1.4-4,7.4.7,6.8,6.7-.9,14.7-6.8,21.7-8.1,2.4,1.4-3.3,7.8,1.3,6.7,4.6-1.1,14.8-6.6,19.3-9.1,2.7-1.5,7.4-6.4,9.3-7,3.8-1.3.2,5.1,4,4,4.4-1.6,16.2-21.4,17-26.4.6-3.8-4.5-1.5-6.8-2l4.1-16.2c-5-.8-6.6,4.3-10.4,6.5-8,4.8-15.4,6.6-24.8,5.6,4.8-6.2,7.9-12.1,6.8-20.3-7.8,6.8-18.1,17.3-29.2,17.7-6.6.2-12-4.9-17.7-5.4-2.8-.3-9.3,1.8-9.9,1.3-.6-.4-3.5-11.5-4.1-13.5,9.3-3.1,15.2-4,24,1,4.7,2.7,10.3,10.6,16.7,9.2,1.8-.4,10.8-6.1,11.6-7.5,1.2-2.3-3.9-8.6-3.2-13.9,1.1-9.5,11.1-21.6,21.4-21.4l-.7,17.6c8-1,14.6-19.5,16.9-21,1.6-1.1,11.9-1,14.2-.6,10.9,2.1-1.6,18-.6,18.9l5.4,2.7-12.2,4.1c-1.4-1.5,16.3-27.6-1.8-21.5-1.9.6-18.2,28.4-28,27,2.1,7.2,2.2,14.9-1.4,21.6,3.9,0,7.5-1.7,10.9-3.3,6.7-3.1,10.9-8.8,17.5-11.6,3.7,4-.7,18.3,0,19,.6.6,5-1,5.5,3.4.9,7.4-8,22.2-12.9,27.8-1.7,2-10.6,10.2-12.2,10.8-3.7,1.5-.2-5-4-4-2.6.7-11.2,7-15.6,8.8-4.1,1.7-11.3,4.2-15.6,4.7s-.5-3.5-1.3-5.3c-3.6,1.6-21.5,7.3-23.6,5.3-.6-.6.7-3.7-.8-4l-15.6,2.7,2.7-10.8c-2.4-.5-12.8.7-13.5,0-.2-.2,0-3.8-.7-5.3-1.6-4-8.2-13-12.3-13.6-4.8-.6-21.8,4.7-27.4,6.4-9.7,3.1-30.1,14.1-37.7,15.2-8.8,1.3-29.4-4.6-38.5-7.4-3.6-1.1-27.6-9-28.5-10.2-3-4,11.1-4.5,8.1-8.1-.2-.3-1.1,1.2-2.6.5-4-1.7-7.9-2.5-11.9-4.3-7.7-3.4-13.9-9.9-22.1-12.5l2-2.7,18.3-4.1c-17.2-4.8-31.7-16.4-47.4-24.4-3.8-4.3,14.8-2.5,10.8-6.7-.9-1-19.8-8.4-23.9-10.6-13.6-7.5-26.7-16.5-39.1-26-3.1-5,4.9-32.8,4.7-40.1-.1-3.7-7.2-4.3-6.6-7.8,23.9-21.9,54-42.1,84.6-53.7,4.1-1.6,22.9-5.9,23.6-6.8,1.4-1.6-1.5-7.2-1.1-8.6.7-2.8,24.7-6.7,29.2-7.3,26.6-3.9,56.9-4.9,83.8-4.4,3.8,0,6.9,1.1,10.6,1.5,13.2-35.4,47.4-1.9,69,5.6,8,2.7,17.6,2.9,25.7,5.5,8.4,2.7,33.7,17.1,38.2,24.1,3.6,5.6,3.8,16.7,5,18.7.9,1.3,25,7.9,29.7,10.3,1.1.6,7.9,5.5,8.6,6.3,1.2,1.3,3.5,5.1,4.1,6.7,2.2,5.6,3,26.9,2.2,33.3-.3,2.6-2.7,1.8-2.6,2.5.5,8-3,17.5-8.3,24.1-1.9,2.3-6,3.9-8.2,7.1-3.5,5.1-4.8,17.6-13.5,14.9,2.8-2.9,9.1-12.2,8-16.1-.7-2.3-10.2-6.3-12.6-6.2-5.8.2-28,5.5-34.7,7.4-15.3,4.2-30.7,10.6-29.8,29.1-6.4-2-11.5-8.1-19-6.8l1.4,4c-8.4-2-17.9-2.7-25.7,1.4-.9-15,3.4-30.7,18.6-36.3,24.8-9.2,45.2,11.2,73.9.7,15.9-5.8,32-29.7,15.9-42.4-4.5-3.6-9.2-3.2-11.8-5.1-1.6-1.1-4.3-7.1-7.2-8.4,2.6-2.5,7.6.6,9.5.7,7.4.3,14.4-4.5,20.8-3.7,3.6.4,7,7.3,11.7,1,0,.1,2.8-.4,2.8.8,0,.7-3.5,8.3-4.1,9.1-1.9,2.4-8.1,5.2-9.6,7.4-4.9,7.3-7.8,43.8,3.5,43.8,2.7,0,11.2-8.4,5.4-9.5-8.3-1.6,5.3-3.9,5.8-4.4s1.9-6.1,1.8-7l-8.2-3.5c9.1-1.5,11.9-3.9,10.8-13.6h-10.8c1.6-3,6.6-2.6,9.4-4.8,5.6-4.3-.1-22.5-5.8-25.4-1.8-.9-4-.5-5.1-1-10.3-4.5-34.5-12.1-41.9-17-1.1-.7-8.5-7.4-6.9-8.7,6.9-1.5,9.4,1.6,14.9,4,5.7-6.6-21.4-24.2-26.4-27.1-10.7-6.4-20-9.1-32.6-10.8-22-2.9-48.3-8.5-71.6-5.3-4.3.6-9,1.8-13,3.2,1.8,2.8,3.2,1.5,5.4,1.4,8.1-.3,18.8-2.8,26.5-2.1,7.6.7,17.2,7,23.5,7.5,2.9.2,4.9-1.9,7.4-1.7,5.7.5,17.7,9.8,22.1,10.2,2.7.2,4.9-3.3,8.9-2.2s12.1,10.9,17.3,12c.6.8-1.7,2.5-3.3,2.6-8.7.4-24.4-9.3-34.7-6.7l1.4-5.4c-1.8-1.3-24.3-2-28.9-3s-4.6-4.8-6-5.2c-4.5-1.2-14.5.7-20.1,0-18.1-2.1-32.6-1.4-50.1-2.8-9.1-.7-15.6-6.5-25.1-6.8-4.9-.1-5.9,1.8-5.2,7.1,2.5,19.5,38.4,32.4,55.3,33.5l-5.4-8.1c8.7,2.2,17.7,3.5,26.4,5.4,2-1.2-1.1-4.3-2-5.4,6.9-.8,17.8,5.4,23.7,5.4h24.4c2.1,0,26.1,10.6,33.2,12.2,2.8.6,5.6.8,8.1,1.4.7,5.8-15.4,4.7-18.2,4.2-.7-.1-.2-6.5-6.7-5.2-2.5.5-7.5,8.4-13.1,4.5-4.6-3.2,1.1-5.3,2.7-7.5-5.6,2.1-5.6-3.2-7.6-3.9-8.4-3-2.5,6.4-3.9,10.7l-29.1-9.5c8.2,17.4,29.6,19.5,46.8,21.6,3.5.4,7.3-.4,10.8,0,11.1,1.3,22.1,2.9,33.2,4.1.2,3.8-4.3,6.2-7.5,6.7-10.7,1.7-26.4.4-37.8,1.4-8.8.8-17.7,2.8-26.4,4.1l89.4,10.8-69.1,1.4c.5,2.5,2.7,2.5,4.7,2.7,19.4,2.7,39,4.1,57.6,10.8,0,2.4-5.9,1.5-7.5,1.4-13.3-.9-29.5-3.3-42.6-2.8-1.8,0-3.6,0-5.4,0,.6,3,3.3,2.3,5.4,2.7,10.3,2,19.7,4,29.5,7.8,2.4,1,6.7.7,5.7,4.4-19-4.6-48.3-7.8-62.3,8.9-7.7,9.1-10.4,21.5-9.5,33.2-.4.6-2.1-1.3-2.7-1.4-13.2-20.8-22.9-44.4-24.4-69.1-2.3-2.9-5.4,7.3-5.8,8.4-5.2,15.1-5.7,33.1-3.3,48.8l6.4,22.7c-2,2.3-11.7-10.8-12.8-12.3-14.1-21.1-19.9-52.8-19.6-77.9,0-3,3.2-13.7,2.6-14.1-3.8-2.7-5.5,4.3-6.4,6.4l-5.7,24.7c.5-3.1-5.1-8.4-5.3-9.1-2-6.5-1.4-17.6-2.8-23.8-.2-1-2.4-.8-2.7-1.9-1.1-4.4,1.4-12.1.4-15-.8-2.2-7.2-5.1-9.3-7.1-8.6-8.7-14.8-23.1-17.1-35.1l-29.7,2.6c-3.5,3.4,11.1,41.3,12.2,48.1,0,6.9-12.2-6.4-12.1,1.1,14.2,33.8,33.7,64.7,56.7,93-5.3,0-10.9-3-15.8-5.2-35.4-15.5-69.1-39.4-97.2-65.4-1.9-1.7-7.1-12-9.6-12.1-2.2-.1-1.3,2.7-1.1,3.8,2.5,18,18.5,34,24.8,50.4-3.3,3.1-42-24.2-47.2-28-5.6-4.1-3.7-3.5-6.9-6.6-2.3-2.2-5.6-3.4-7.5-6.1-2.2,6.4-8.7,28.4-4.7,33.2,1.5,1.8,17.8,11.9,21.2,14,30.8,18.5,59,25.4,92.1,36.7,1.8.6,4.1.4,4.6,2.9h-42l55.6,23.7c.9,1,2.1,1.1.7,2-6,4-22.9,4.1-30.8,5.8-1.3.3-4.1.5-3.7,2.3l35.2,9.5h0ZM309.6,17.1c3.7-3.2-19.1-10.5-21.1-10.7-8.1-1-12.4.3-11.4,9.4,9.6-9.3,21.4,1.9,32.5,1.4h0Z"/>
  <path class="st0" d="M180.9,236.6l-35.2-9.5c-.3-1.8,2.4-2.1,3.7-2.3,7.9-1.7,24.8-1.8,30.8-5.8,1.4-1,.2-1-.7-2l-55.6-23.7h42c-.4-2.5-2.8-2.3-4.6-2.9-33.1-11.3-61.3-18.2-92.1-36.7-3.4-2.1-19.7-12.2-21.2-14-4-4.8,2.5-26.8,4.7-33.2,2,2.7,5.2,3.8,7.5,6.1,3.2,3,1.3,2.5,6.9,6.6,5.2,3.8,43.9,31.1,47.2,28-6.3-16.4-22.3-32.4-24.8-50.4-.1-1.1-1.1-3.8,1.1-3.8,2.5.1,7.7,10.4,9.6,12.1,28.2,26,61.9,49.9,97.2,65.4,4.9,2.1,10.5,5.2,15.8,5.2-23-28.4-42.5-59.2-56.7-93-.1-7.5,12,5.7,12.1-1.1-1.1-6.8-15.7-44.7-12.2-48.1l29.7-2.6c2.3,11.9,8.4,26.4,17.1,35.1,2.1,2.1,8.5,5,9.3,7.1,1,2.9-1.5,10.6-.4,15,.3,1,2.4.8,2.7,1.9,1.4,6.3.9,17.3,2.8,23.8.2.8,5.9,6.1,5.3,9.1l5.7-24.7c.9-2.1,2.7-9.1,6.4-6.4.6.4-2.5,11.1-2.6,14.1-.3,25.1,5.5,56.9,19.6,77.9,1,1.5,10.8,14.6,12.8,12.3l-6.4-22.7c-2.4-15.7-1.9-33.7,3.3-48.8.4-1.1,3.5-11.3,5.8-8.4,1.5,24.7,11.2,48.3,24.4,69.1-1.1,0-3,1.4-3.8,1.1-.5-.2-7.6-7.8-7.9-8.3-.8-1.1,0-3.3-.9-4.5-1.9-2.8-4.7-6.9-7.7-8.6l1.3,16.3c-3.1.7-6.2-6.1-6.8-.7-1.2,10.1,9.6,22.3,4.8,33.2-4.8-4.8-10.9-7.9-15.6-12.8-5-5.2-8-12.3-11.2-16.5-6.2-8.4-5.6-3.5-10.1-14.9-1.5-3.7-4.6-6.3-5.3-7.6-1.7-3.3-1.3-8.9-5.2-11.8l-1.3,10.8c-3.8-2.3-7.4-6.5-10.7-9-.8-.6-2.2-.4-3-.9-1.1-.8-1.5-3.1-2.5-3.6-1.2-.6-4.3-.5-3.4,2,.3.8,7.5,14.1,8,14.7,6.8,8.2,9.4,9.6,15.3,19.5.8,1.4,6.1,2,5.1,5.8-.6.5-13.2-2.6-15.2-3.1-18.3-5.1-36.5-13.4-52.9-18.9-2.2-.7-5-5.1-5.1-.3s1.5,1.9,2.7,4.7c-3.6.4-6.4-1.5-8.8-4-3.4,7.1-14-3.1-21,0-.8,3.8,1.1,2.2,2.9,3.1,6.8,3.7,14.5,5.8,19.8,10.3l36.9,11c.5,3.7-.4,2.1-2,2.7-7.3,2.9-15.9,3.5-22.4,7.5l40.6,16.3c.2.4-4.3,2.6-5.2,3-4.4,1.8-8.5,2.1-12.9,3.1-.5.1-3.5,5.2-9.1,2.7-3.4,2.6,7.7,5,8.1,5.4,2.7,2.9-5.7,3.6-6.8,4h0Z"/>
  <path class="st0" d="M197.2,22.5c9.4.2,16,6,25.1,6.8,17.5,1.4,32,.7,50.1,2.8,5.6.7,15.6-1.3,20.1,0,1.4.4,1.6,4.2,6,5.2s27.1,1.7,28.9,3l-1.4,5.4c10.2-2.6,26,7.1,34.7,6.7,1.6,0,3.8-1.8,3.3-2.6-5.1-1.1-13.3-10.9-17.3-12s-6.2,2.4-8.9,2.2c-4.4-.4-16.4-9.7-22.1-10.2-2.5-.2-4.5,1.9-7.4,1.7-6.3-.5-16-6.8-23.5-7.5-7.5-.7-18.3,1.8-26.5,2.1-2.2,0-3.6,1.3-5.4-1.4,4.1-1.4,8.7-2.6,13-3.2,23.4-3.2,49.7,2.4,71.6,5.3,12.6,1.6,21.9,4.4,32.6,10.8,4.9,3,32.1,20.5,26.4,27.1-5.5-2.5-8-5.6-14.9-4-1.6,1.3,5.8,8,6.9,8.7,7.4,5,31.6,12.5,41.9,17-1.2,4.2,3.1,2,3.9,2.8s-.3,4.6.1,5.3c-4.7,6.3-8.1-.6-11.7-1-6.4-.8-13.5,4-20.8,3.7,0-3.3-1.4-3.7-3.8-5-2.7-1.5-9.9-3.3-11.6-4.3-.5-.3-2.3-6.3-4.5-6.8-2-.5-4.2.3-6.2,0-1.1-.2-1.1-2.2-2-2.6-6.4-3.2-11.3-2.7-18-4.1-2.5-.5-5.3-.7-8.1-1.4l-8.5-7.7c-18.7-9.4-28.7-9.3-48.9-11.4-9-.9-19.3-5.5-28.6-6.6-2.8,3.4,2.9,5.7,4.7,8.1.9,1.2,4,4.2,2,5.4-8.8-2-17.7-3.3-26.4-5.4-11-2.8-25.8-7.1-34.5-13.5-5.2-3.8-15.1-11.7-10.2-19h0Z"/>
  <path class="st0" d="M331.3,129.5v2.7c-2.1-.4-4.8.3-5.4-2.7,1.8,0,3.6,0,5.4,0h0Z"/>
  <path class="st2" d="M430.2,86.2c1,.5,3.2,0,5.1,1,5.6,2.9,11.3,21.1,5.8,25.4-2.8,2.2-7.9,1.8-9.4,4.8h10.8c1,9.7-1.7,12.1-10.8,13.6l8.2,3.5c.1.8-1.3,6.5-1.8,7s-14.1,2.8-5.8,4.4c5.8,1.1-2.7,9.5-5.4,9.5-11.2,0-8.4-36.5-3.5-43.8,1.5-2.2,7.7-5,9.6-7.4.6-.8,4.1-8.4,4.1-9.1,0-1.2-2.7-.6-2.8-.8-.5-.8.7-4.5-.1-5.3s-5.2,1.4-3.9-2.8h0Z"/>
  <path class="st2" d="M266.3,55c-1.8-2.5-7.5-4.8-4.7-8.1,9.3,1.1,19.5,5.7,28.6,6.6,20.3,2.1,30.2,1.9,48.9,11.4l8.5,7.7c-7.1-1.6-31.1-12.2-33.2-12.2h-24.4c-5.9,0-16.8-6.2-23.7-5.4Z"/>
  <path class="st2" d="M197.2,22.5c-4.9,7.3,5,15.1,10.2,19,8.7,6.4,23.5,10.7,34.5,13.5l5.4,8.1c-16.9-1.2-52.8-14.1-55.3-33.5-.7-5.3.3-7.2,5.2-7.1h0Z"/>
  <path class="st2" d="M309.6,17.1c-11.1.6-22.9-10.6-32.5-1.4-1-9.1,3.2-10.4,11.4-9.4,2,.3,24.8,7.5,21.1,10.7h0Z"/>
</svg>